<svg width="30" height="29" viewBox="0 0 30 29" fill="none" xmlns="http://www.w3.org/2000/svg">
<path id="Star 19" d="M14.0489 2.16312C14.3483 1.24181 15.6517 1.24181 15.9511 2.16312L18.0902 8.74671C18.4918 9.98278 19.6437 10.8197 20.9434 10.8197H27.8658C28.8345 10.8197 29.2373 12.0593 28.4535 12.6287L22.8532 16.6976C21.8018 17.4615 21.3618 18.8156 21.7634 20.0517L23.9025 26.6353C24.2019 27.5566 23.1474 28.3227 22.3637 27.7533L16.7634 23.6844C15.7119 22.9205 14.2881 22.9205 13.2366 23.6844L7.6363 27.7533C6.85259 28.3227 5.79811 27.5566 6.09746 26.6353L8.2366 20.0517C8.63823 18.8156 8.19825 17.4615 7.14679 16.6976L1.54645 12.6287C0.762739 12.0593 1.16551 10.8197 2.13424 10.8197H9.05664C10.3563 10.8197 11.5082 9.98278 11.9098 8.74671L14.0489 2.16312Z" stroke="white" stroke-width="2"/>
</svg>
