<svg width="32" height="31" viewBox="0 0 32 31" fill="none" xmlns="http://www.w3.org/2000/svg">
<path id="Star 19" d="M18.3776 2.69959C17.6293 0.396315 14.3707 0.396315 13.6224 2.69959L11.4832 9.28319C11.2824 9.90122 10.7065 10.3197 10.0566 10.3197H3.13424C0.712429 10.3197 -0.294512 13.4187 1.66477 14.8422L7.26511 18.9111C7.79084 19.2931 8.01083 19.9701 7.81002 20.5881L5.67088 27.1717C4.9225 29.475 7.5587 31.3903 9.51798 29.9668L15.1183 25.8979C15.6441 25.516 16.3559 25.516 16.8817 25.8979L22.482 29.9668C24.4413 31.3903 27.0775 29.475 26.3291 27.1717L24.19 20.5881C23.9892 19.9701 24.2092 19.2931 24.7349 18.9111L30.3352 14.8422C32.2945 13.4187 31.2876 10.3197 28.8658 10.3197H21.9434C21.2935 10.3197 20.7176 9.90122 20.5168 9.28319L18.3776 2.69959Z" fill="#312E81" stroke="white"/>
</svg>
