<svg width="14" height="13" viewBox="0 0 14 13" fill="none" xmlns="http://www.w3.org/2000/svg">
<path id="&#244;&#129;&#146;&#176;" d="M9.54726 11.7833V7.55196C9.54726 7.04484 9.43641 6.58724 9.21472 6.17916C8.99302 5.77109 8.68866 5.45017 8.30163 5.21642C7.9146 4.97871 7.47873 4.85985 6.994 4.85985C6.51303 4.85985 6.07904 4.97871 5.69201 5.21642C5.30874 5.45017 5.00438 5.77109 4.77892 6.17916C4.55347 6.58724 4.44074 7.04484 4.44074 7.55196V11.7833H3.51075V7.55196C3.51075 7.03691 3.59905 6.55752 3.77566 6.11379C3.95226 5.6661 4.19838 5.27387 4.51402 4.93711C4.82965 4.60035 5.19789 4.33886 5.61874 4.15265C6.04334 3.96644 6.50176 3.87334 6.994 3.87334C7.48624 3.87334 7.94278 3.96644 8.36363 4.15265C8.78823 4.33886 9.16023 4.60035 9.47962 4.93711C9.79902 5.27387 10.047 5.6661 10.2236 6.11379C10.4002 6.55752 10.4885 7.03691 10.4885 7.55196V11.7833H9.54726ZM11.1367 12.2765H2.84566C2.72166 12.2765 2.61457 12.227 2.52439 12.1279C2.43421 12.0329 2.38912 11.918 2.38912 11.7833C2.38912 11.6525 2.43421 11.5376 2.52439 11.4386C2.61457 11.3395 2.72166 11.29 2.84566 11.29H11.1367C11.2645 11.29 11.3753 11.3395 11.4692 11.4386C11.5632 11.5376 11.6102 11.6525 11.6102 11.7833C11.6102 11.918 11.5632 12.0329 11.4692 12.1279C11.3753 12.227 11.2645 12.2765 11.1367 12.2765ZM7.46745 7.71836V11.7833H6.53182V7.71836C6.53182 7.57969 6.57691 7.46083 6.66709 7.36179C6.75728 7.26274 6.86624 7.21322 6.994 7.21322C7.12176 7.21322 7.23261 7.26274 7.32655 7.36179C7.42048 7.46083 7.46745 7.57969 7.46745 7.71836ZM2.09603 8.02144H1.07022C0.934944 8.02144 0.81846 7.96994 0.720763 7.86693C0.623067 7.76392 0.574219 7.6411 0.574219 7.49847C0.574219 7.35584 0.623067 7.23303 0.720763 7.13002C0.81846 7.02305 0.934944 6.96956 1.07022 6.96956H2.09603C2.23506 6.96956 2.3553 7.02106 2.45675 7.12407C2.55821 7.22708 2.60893 7.35188 2.60893 7.49847C2.60893 7.6411 2.55821 7.76392 2.45675 7.86693C2.3553 7.96994 2.23506 8.02144 2.09603 8.02144ZM3.17257 4.21208L2.45112 3.44545C2.35342 3.34245 2.30457 3.21963 2.30457 3.077C2.30457 2.93437 2.35342 2.80957 2.45112 2.7026C2.54881 2.60355 2.6653 2.55403 2.80057 2.55403C2.9396 2.55403 3.05608 2.60355 3.15002 2.7026L3.87711 3.47517C3.97105 3.57818 4.01802 3.701 4.01802 3.84362C4.02178 3.98625 3.97481 4.10907 3.87711 4.21208C3.77941 4.31905 3.66105 4.37254 3.52202 4.37254C3.38675 4.36858 3.27026 4.31509 3.17257 4.21208ZM6.498 2.33414V1.25255C6.498 1.11388 6.54685 0.991061 6.64455 0.88409C6.74225 0.777118 6.85873 0.723633 6.994 0.723633C7.12927 0.723633 7.24576 0.777118 7.34345 0.88409C7.44491 0.991061 7.49564 1.11388 7.49564 1.25255V2.33414C7.49564 2.48073 7.44679 2.60553 7.34909 2.70854C7.25139 2.81155 7.13303 2.86306 6.994 2.86306C6.85873 2.86306 6.74225 2.81155 6.64455 2.70854C6.54685 2.60553 6.498 2.48073 6.498 2.33414ZM10.1109 3.47517L10.838 2.7026C10.9357 2.60355 11.0522 2.55403 11.1874 2.55403C11.3227 2.55403 11.4411 2.60355 11.5425 2.7026C11.6365 2.80957 11.6834 2.93437 11.6834 3.077C11.6834 3.21963 11.6365 3.34245 11.5425 3.44545L10.8098 4.21208C10.7159 4.31509 10.6013 4.36858 10.466 4.37254C10.3307 4.37254 10.2123 4.31905 10.1109 4.21208C10.0132 4.10907 9.96435 3.98625 9.96435 3.84362C9.96811 3.701 10.017 3.57818 10.1109 3.47517ZM12.9178 8.02144H11.892C11.7567 8.02144 11.6383 7.96994 11.5369 7.86693C11.4392 7.76392 11.3903 7.6411 11.3903 7.49847C11.3903 7.35188 11.4392 7.22708 11.5369 7.12407C11.6383 7.02106 11.7567 6.96956 11.892 6.96956H12.9178C13.0531 6.96956 13.1714 7.02305 13.2729 7.13002C13.3743 7.23303 13.4251 7.35584 13.4251 7.49847C13.4251 7.6411 13.3743 7.76392 13.2729 7.86693C13.1714 7.96994 13.0531 8.02144 12.9178 8.02144Z" fill="#3730A3"/>
</svg>
