<svg width="12" height="12" viewBox="0 0 12 12" fill="none" xmlns="http://www.w3.org/2000/svg">
<path id="&#244;&#128;&#140;&#164;" d="M2.23417 11.4103C2.04976 11.4103 1.90614 11.361 1.80329 11.2625C1.70045 11.164 1.64548 11.0428 1.63839 10.8988C1.63484 10.7549 1.68095 10.6147 1.7767 10.4783C1.85472 10.3723 1.94515 10.2397 2.04799 10.0806C2.15083 9.92147 2.25367 9.75478 2.35652 9.58052C2.46291 9.40626 2.55334 9.24337 2.62781 9.09184C2.10296 8.82666 1.64371 8.48382 1.25007 8.06332C0.856432 7.63904 0.549677 7.16172 0.329806 6.63136C0.109935 6.101 0 5.54223 0 4.95505C0 4.26938 0.148945 3.62726 0.446834 3.02872C0.744723 2.43017 1.15787 1.9055 1.68627 1.45469C2.21466 1.0001 2.8264 0.644005 3.52148 0.386403C4.2201 0.128801 4.97014 0 5.77161 0C6.57307 0 7.32311 0.128801 8.02173 0.386403C8.72035 0.644005 9.33209 1.0001 9.85694 1.45469C10.3853 1.9055 10.7985 2.43017 11.0964 3.02872C11.3943 3.62726 11.5432 4.26938 11.5432 4.95505C11.5432 5.52329 11.4421 6.06122 11.24 6.56885C11.0414 7.07269 10.7577 7.53107 10.3889 7.94399C10.0201 8.35691 9.57856 8.71112 9.06435 9.0066C8.55368 9.30209 7.98627 9.52559 7.36212 9.67712C6.74152 9.83244 6.07836 9.90253 5.37265 9.88737C5.02511 10.1526 4.65275 10.4007 4.25556 10.6318C3.85838 10.8666 3.47892 11.0542 3.1172 11.1943C2.75902 11.3383 2.46468 11.4103 2.23417 11.4103ZM2.80335 10.4102C2.95584 10.3458 3.14557 10.2435 3.37253 10.1033C3.60304 9.96314 3.84242 9.80593 4.09066 9.63167C4.3389 9.46119 4.56409 9.2964 4.76623 9.1373C4.86552 9.05396 4.95773 8.99524 5.04284 8.96114C5.1315 8.92326 5.23079 8.90432 5.34073 8.90432C5.43648 8.90432 5.51982 8.90621 5.59074 8.91C5.66522 8.91379 5.7255 8.91568 5.77161 8.91568C6.44895 8.91568 7.08019 8.8134 7.66533 8.60883C8.25047 8.40048 8.76291 8.11446 9.20265 7.75079C9.64594 7.38712 9.9917 6.96662 10.2399 6.4893C10.4882 6.00819 10.6123 5.49677 10.6123 4.95505C10.6123 4.40954 10.4882 3.89813 10.2399 3.4208C9.9917 2.93969 9.64594 2.5173 9.20265 2.15363C8.76291 1.78996 8.25047 1.50584 7.66533 1.30127C7.08019 1.0967 6.44895 0.99442 5.77161 0.99442C5.09781 0.99442 4.46657 1.0967 3.87788 1.30127C3.29274 1.50584 2.77853 1.78996 2.33524 2.15363C1.8955 2.5173 1.55151 2.93969 1.30327 3.4208C1.05502 3.89813 0.930904 4.40954 0.930904 4.95505C0.930904 5.4248 1.02665 5.87371 1.21815 6.30178C1.4132 6.72607 1.69336 7.11626 2.05863 7.47235C2.4239 7.82466 2.86718 8.12962 3.38849 8.38722C3.54807 8.47056 3.64205 8.57285 3.67042 8.69407C3.70234 8.81529 3.68106 8.94788 3.60659 9.09184C3.51793 9.26989 3.39026 9.48013 3.22359 9.72258C3.05691 9.96503 2.90619 10.1753 2.77143 10.3533C2.7537 10.3761 2.74838 10.3931 2.75548 10.4045C2.76257 10.4196 2.77853 10.4215 2.80335 10.4102Z" fill="#3730A3"/>
</svg>
