<svg width="24" height="25" viewBox="0 0 24 25" fill="none" xmlns="http://www.w3.org/2000/svg">
<path fill-rule="evenodd" clip-rule="evenodd" d="M23.52 12.9643C23.52 12.1134 23.4436 11.2952 23.3018 10.5098H12V15.1516H18.4582C18.18 16.6516 17.3345 17.9225 16.0636 18.7734V21.7843H19.9418C22.2109 19.6952 23.52 16.6189 23.52 12.9643Z" fill="#4285F4"/>
<path fill-rule="evenodd" clip-rule="evenodd" d="M12.001 24.6927C15.241 24.6927 17.9573 23.6181 19.9428 21.7854L16.0646 18.7745C14.9901 19.4945 13.6155 19.9199 12.001 19.9199C8.87553 19.9199 6.23007 17.809 5.28643 14.9727H1.27734V18.0817C3.25189 22.0036 7.31007 24.6927 12.001 24.6927Z" fill="#34A853"/>
<path fill-rule="evenodd" clip-rule="evenodd" d="M5.28545 14.9718C5.04545 14.2518 4.90909 13.4827 4.90909 12.6918C4.90909 11.9009 5.04545 11.1318 5.28545 10.4118V7.30273H1.27636C0.463636 8.92273 0 10.7555 0 12.6918C0 14.6282 0.463636 16.4609 1.27636 18.0809L5.28545 14.9718Z" fill="#FBBC05"/>
<path fill-rule="evenodd" clip-rule="evenodd" d="M11.999 5.46413C13.7608 5.46413 15.3427 6.06959 16.5863 7.25868L20.0281 3.81686C17.9499 1.8805 15.2336 0.691406 11.999 0.691406C7.30812 0.691406 3.24994 3.3805 1.27539 7.30232L5.28448 10.4114C6.22812 7.57504 8.87357 5.46413 11.999 5.46413Z" fill="#EA4335"/>
</svg>
