<svg width="78" height="21" viewBox="0 0 78 21" fill="none" xmlns="http://www.w3.org/2000/svg">
<path d="M19.6 0.574999V20.125H9.75L7.75 13.55V20.125H0.9V0.574999H10.775L13.45 8.35L14.125 8.175L12.475 3.5V0.574999H19.6ZM36.8578 20.125H21.4078V0.574999H36.8578V6.45H28.9078V7.325H36.8578V13.375H28.9078V14.25H36.8578V20.125ZM46.7686 20.1H37.7686L43.7686 0.574999H52.2686L58.2686 20.1H49.2686L48.0186 16.05L46.7686 20.1ZM45.1686 9.7L44.7186 10.375C46.6186 11.275 49.1686 11.5 51.5436 11.5V10.75C49.1686 10.75 46.8936 10.45 45.1686 9.7ZM76.8514 8.1C76.8514 10.5 75.9764 12 74.7514 13.175L77.4264 20.1H68.8264L67.2014 15.375H67.1764V20.125H59.1764V0.574999H66.8514C74.0014 0.574999 76.8264 3.1 76.8514 8.1ZM65.5514 7.05L65.1014 7.675C66.5014 8.575 69.6764 9.05 71.5514 9.05V8.35C69.6764 8.35 66.7764 7.8 65.5514 7.05Z" fill="#312E81"/>
</svg>
