<svg width="123" height="32" viewBox="0 0 123 32" fill="none" xmlns="http://www.w3.org/2000/svg">
<path d="M30.36 0.519998V31.8H14.6L11.4 21.28V31.8H0.44V0.519998H16.24L20.52 12.96L21.6 12.68L18.96 5.2V0.519998H30.36ZM57.9725 31.8H33.2525V0.519998H57.9725V9.92H45.2525V11.32H57.9725V21H45.2525V22.4H57.9725V31.8ZM73.8297 31.76H59.4297L69.0297 0.519998H82.6297L92.2297 31.76H77.8297L75.8297 25.28L73.8297 31.76ZM71.2697 15.12L70.5497 16.2C73.5897 17.64 77.6697 18 81.4697 18V16.8C77.6697 16.8 74.0297 16.32 71.2697 15.12ZM121.962 12.56C121.962 16.4 120.562 18.8 118.602 20.68L122.882 31.76H109.122L106.522 24.2H106.482V31.8H93.6822V0.519998H105.962C117.402 0.519998 121.922 4.56 121.962 12.56ZM103.882 10.88L103.162 11.88C105.402 13.32 110.482 14.08 113.482 14.08V12.96C110.482 12.96 105.842 12.08 103.882 10.88Z" fill="#312E81"/>
</svg>
